<?xml version="1.0" encoding="utf-8"?>
<svg version="1.1" id="Layer_1" xmlns="http://www.w3.org/2000/svg" xmlns:xlink="http://www.w3.org/1999/xlink" x="0px" y="0px"
	 viewBox="0 0 36 36" style="enable-background:new 0 0 36 36;" xml:space="preserve">
<g>
	<path d="M17.05,22.21l-0.36-3.69c-0.06-0.64,0.37-1.23,1.01-1.33c0.98-0.14,1.64-0.42,2.36-0.84c0.97-0.56,1.45-1.49,1.45-2.76
		v-0.45c0-0.96-0.29-1.67-0.86-2.12s-1.31-0.69-2.21-0.69c-1,0-1.81,0.28-2.43,0.85c-0.37,0.33-0.67,0.73-0.9,1.18
		c-0.29,0.56-0.98,0.77-1.56,0.53l-1.1-0.45c-0.67-0.27-1.01-1.07-0.69-1.72c0.11-0.23,0.24-0.45,0.38-0.68
		c0.38-0.62,0.87-1.17,1.45-1.65c0.59-0.48,1.29-0.86,2.11-1.15c0.82-0.29,1.77-0.43,2.86-0.43c1.09,0,2.08,0.16,2.97,0.46
		s1.66,0.75,2.3,1.31c0.64,0.56,1.13,1.24,1.49,2.01c0.35,0.78,0.53,1.65,0.53,2.6c0,0.94-0.16,1.77-0.48,2.51
		c-0.32,0.74-0.75,1.37-1.29,1.92c-0.54,0.54-1.17,0.99-1.87,1.33c-0.53,0.26-1.35,0.45-2.05,0.59c-0.38,0.07-0.67,0.38-0.72,0.76
		l-0.28,1.91H17.05z" class="fill"/>
</g>
<circle cx="18.27" cy="26.34" r="2.85" class="fill"/>
</svg>
